<svg width="70" height="70" viewBox="0 0 70 70" fill="none" xmlns="http://www.w3.org/2000/svg">
<path d="M27.6035 3.41797C27.9043 5.2582 28.7656 7.80801 29.832 10.1555C31.1582 13.0813 32.8809 15.832 33.6875 16.625C35.7246 18.6758 37.5977 19.5508 39.375 19.5508C41.1523 19.5508 43.0254 18.6758 45.0625 16.625C45.8691 15.832 47.5918 13.0813 48.918 10.1555C49.9844 7.80801 50.8457 5.2582 51.1465 3.41797H27.6035ZM62.4805 15.7227V36.7773H66.582V15.7227H62.4805ZM60.0195 17.418L47.1953 17.9512C47.0723 18.1016 46.9355 18.252 46.8125 18.375C44.4746 20.6992 41.9727 22.0117 39.375 22.0117C36.8594 22.0117 34.4258 20.7676 32.1426 18.5664L29.668 18.6758V33.8242L60.0195 35.082V27.4805H48.125V25.0195H60.0195V17.418ZM25.293 23.1055V31.582H27.207V23.1055H25.293ZM18.1699 25.293L16.7891 27.4121L18.1426 29.3945H22.832V25.293H18.1699ZM19.5508 31.8555V54.8516L22.0117 55.4668V31.8555H19.5508ZM31.8555 36.3672V59.0762C31.8555 59.7461 32.2383 60.5801 32.8672 61.1953C33.4824 61.8242 34.3164 62.207 35 62.207H46.8945V53.7305H42.793V58.1055H35.957V36.5449L31.8555 36.3672ZM42.793 36.832V40.4414H46.8945V36.9961L42.793 36.832ZM42.793 49.3555V51.2695H46.8945V49.3555H42.793ZM14.2188 56.0547C12.0299 56.0547 8.89629 56.082 6.39434 56.5742C5.11875 56.834 4.0291 57.2168 3.36602 57.6816C2.7043 58.1465 2.46094 58.5156 2.46094 59.1992C2.46094 59.8828 2.7043 60.252 3.36602 60.7168C4.0291 61.1816 5.11875 61.5645 6.39434 61.8242C8.89629 62.3164 12.0299 62.3438 14.2188 62.3438L21.875 60.4297V57.9688L14.2188 56.0547ZM43.4355 64.668L41.5215 66.582H48.7129L46.7988 64.668H43.4355Z" fill="#BA845C"/>
</svg>
