<svg width="70" height="70" viewBox="0 0 70 70" fill="none" xmlns="http://www.w3.org/2000/svg">
<path d="M16.6941 5.29235V2.9402C16.6941 2.47233 16.876 2.02362 17.1999 1.69278C17.5238 1.36195 17.963 1.17609 18.421 1.17609C18.8791 1.17609 19.3183 1.36195 19.6422 1.69278C19.9661 2.02362 20.148 2.47233 20.148 2.9402V5.29235C20.148 5.76022 19.9661 6.20893 19.6422 6.53977C19.3183 6.8706 18.8791 7.05646 18.421 7.05646C17.963 7.05646 17.5238 6.8706 17.1999 6.53977C16.876 6.20893 16.6941 5.76022 16.6941 5.29235ZM28.2072 18.8172C28.2072 20.7944 27.6333 22.7271 26.558 24.371C25.4826 26.015 23.9542 27.2963 22.1661 28.0529C20.3779 28.8095 18.4102 29.0075 16.5119 28.6218C14.6135 28.236 12.8698 27.284 11.5012 25.8859C10.1325 24.4879 9.2005 22.7066 8.8229 20.7675C8.4453 18.8283 8.63909 16.8183 9.37979 14.9917C10.1205 13.165 11.3748 11.6038 12.9841 10.5053C14.5935 9.40687 16.4855 8.82058 18.421 8.82058C21.0157 8.8233 23.5033 9.87739 25.338 11.7515C27.1727 13.6257 28.2046 16.1668 28.2072 18.8172ZM24.7533 18.8172C24.7533 17.5379 24.3819 16.2873 23.6861 15.2236C22.9903 14.1598 22.0014 13.3308 20.8443 12.8412C19.6872 12.3516 18.414 12.2235 17.1857 12.4731C15.9574 12.7227 14.8291 13.3387 13.9435 14.2434C13.0579 15.148 12.4548 16.3005 12.2105 17.5553C11.9661 18.81 12.0915 20.1106 12.5708 21.2926C13.0501 22.4745 13.8617 23.4847 14.903 24.1955C15.9444 24.9063 17.1686 25.2856 18.421 25.2856C20.0999 25.2837 21.7094 24.6016 22.8965 23.3889C24.0836 22.1763 24.7514 20.5321 24.7533 18.8172ZM7.41302 10.0687C7.57367 10.2328 7.76438 10.363 7.97427 10.4518C8.18416 10.5406 8.40911 10.5863 8.6363 10.5863C8.86348 10.5863 9.08844 10.5406 9.29833 10.4518C9.50822 10.363 9.69893 10.2328 9.85957 10.0687C10.0202 9.90459 10.1476 9.70978 10.2346 9.49537C10.3215 9.28097 10.3663 9.05117 10.3663 8.81911C10.3663 8.58704 10.3215 8.35724 10.2346 8.14284C10.1476 7.92843 10.0202 7.73362 9.85957 7.56953L8.1326 5.80541C7.80817 5.474 7.36814 5.28782 6.90932 5.28782C6.45051 5.28782 6.01048 5.474 5.68605 5.80541C5.36162 6.13682 5.17936 6.58631 5.17936 7.05499C5.17936 7.52368 5.36162 7.97316 5.68605 8.30457L7.41302 10.0687ZM7.41302 27.5628L5.68605 29.3269C5.52541 29.491 5.39798 29.6858 5.31104 29.9002C5.2241 30.1146 5.17936 30.3444 5.17936 30.5765C5.17936 30.8086 5.2241 31.0384 5.31104 31.2528C5.39798 31.4672 5.52541 31.662 5.68605 31.8261C6.01048 32.1575 6.45051 32.3437 6.90932 32.3437C7.13651 32.3437 7.36147 32.298 7.57136 32.2092C7.78124 32.1203 7.97195 31.9902 8.1326 31.8261L9.85957 30.062C10.184 29.7306 10.3663 29.2811 10.3663 28.8124C10.3663 28.3437 10.184 27.8942 9.85957 27.5628C9.53514 27.2314 9.09511 27.0452 8.6363 27.0452C8.17748 27.0452 7.73746 27.2314 7.41302 27.5628ZM28.2072 10.5847C28.4341 10.5849 28.6588 10.5394 28.8684 10.4509C29.078 10.3623 29.2686 10.2325 29.4291 10.0687L31.156 8.30457C31.3167 8.14048 31.4441 7.94566 31.531 7.73126C31.618 7.51686 31.6627 7.28706 31.6627 7.05499C31.6627 6.82292 31.618 6.59313 31.531 6.37872C31.4441 6.16432 31.3167 5.96951 31.156 5.80541C30.9954 5.64132 30.8047 5.51115 30.5948 5.42234C30.3849 5.33353 30.1599 5.28782 29.9328 5.28782C29.7056 5.28782 29.4806 5.33353 29.2707 5.42234C29.0608 5.51115 28.8701 5.64132 28.7095 5.80541L26.9825 7.56953C26.7396 7.81627 26.5739 8.13125 26.5067 8.47442C26.4395 8.81758 26.4737 9.17342 26.605 9.49667C26.7363 9.81992 26.9587 10.096 27.244 10.2897C27.5293 10.4835 27.8646 10.5861 28.2072 10.5847ZM29.4291 27.5657C29.1046 27.2343 28.6646 27.0482 28.2058 27.0482C27.747 27.0482 27.3069 27.2343 26.9825 27.5657C26.6581 27.8972 26.4758 28.3466 26.4758 28.8153C26.4758 29.284 26.6581 29.7335 26.9825 30.0649L28.7095 31.829C29.0339 32.1604 29.4739 32.3466 29.9328 32.3466C30.3916 32.3466 30.8316 32.1604 31.156 31.829C31.4805 31.4976 31.6627 31.0481 31.6627 30.5794C31.6627 30.1108 31.4805 29.6613 31.156 29.3299L29.4291 27.5657ZM6.90789 18.8172C6.90789 18.3493 6.72594 17.9006 6.40207 17.5698C6.0782 17.239 5.63893 17.0531 5.18091 17.0531H2.87828C2.42026 17.0531 1.981 17.239 1.65713 17.5698C1.33325 17.9006 1.15131 18.3493 1.15131 18.8172C1.15131 19.2851 1.33325 19.7338 1.65713 20.0646C1.981 20.3955 2.42026 20.5813 2.87828 20.5813H5.18091C5.63893 20.5813 6.0782 20.3955 6.40207 20.0646C6.72594 19.7338 6.90789 19.2851 6.90789 18.8172ZM18.421 30.578C17.963 30.578 17.5238 30.7638 17.1999 31.0947C16.876 31.4255 16.6941 31.8742 16.6941 32.3421V34.6942C16.6941 35.1621 16.876 35.6108 17.1999 35.9416C17.5238 36.2725 17.963 36.4583 18.421 36.4583C18.8791 36.4583 19.3183 36.2725 19.6422 35.9416C19.9661 35.6108 20.148 35.1621 20.148 34.6942V32.3421C20.148 31.8742 19.9661 31.4255 19.6422 31.0947C19.3183 30.7638 18.8791 30.578 18.421 30.578ZM33.9638 17.0531H31.6612C31.2032 17.0531 30.7639 17.239 30.44 17.5698C30.1161 17.9006 29.9342 18.3493 29.9342 18.8172C29.9342 19.2851 30.1161 19.7338 30.44 20.0646C30.7639 20.3955 31.2032 20.5813 31.6612 20.5813H33.9638C34.4218 20.5813 34.8611 20.3955 35.185 20.0646C35.5088 19.7338 35.6908 19.2851 35.6908 18.8172C35.6908 18.3493 35.5088 17.9006 35.185 17.5698C34.8611 17.239 34.4218 17.0531 33.9638 17.0531Z" fill="#BA845C"/>
<path d="M36.8421 58.7097C39.4915 58.3079 41.9111 56.9464 43.6594 54.8737C45.4078 52.801 46.3684 50.1553 46.3658 47.4194C46.3792 43.9849 47.5988 40.6694 49.803 38.076C52.0072 35.4825 55.0494 33.7834 58.3764 33.2876L63.1474 32.5914C63.0185 32.4409 62.9079 32.2903 62.7606 32.1398C56.7553 26.0054 45.2237 27.8495 36.9711 36.2419C29.9895 43.4677 27.6316 53.0645 30.8737 59.5753L36.8421 58.7097Z" fill="#BA845C"/>
<path d="M49.2395 47.4194C49.2275 50.8532 48.011 54.1689 45.8109 56.765C43.6107 59.3612 40.5725 61.0659 37.2474 61.5699L32.7158 62.2285L32.9921 62.5484C38.9974 68.6828 50.529 66.8575 58.7816 58.4651C65.7263 51.3898 68.1579 41.7742 64.9342 35.3575L58.7816 36.2608C56.1492 36.6514 53.7403 37.991 51.9903 40.0374C50.2403 42.0839 49.2646 44.7022 49.2395 47.4194Z" fill="#BA845C"/>
</svg>
