<svg width="61" height="59" viewBox="0 0 61 59" fill="none" xmlns="http://www.w3.org/2000/svg">
<path fill-rule="evenodd" clip-rule="evenodd" d="M0.56249 31.65C0.533323 32.1663 0.60624 32.7875 0.752074 34.0358L1.92166 44.0342C2.37984 47.9495 4.25983 51.5603 7.20468 54.1809C10.1495 56.8016 13.9542 58.2496 17.8962 58.25H28.4371C31.5347 58.2498 34.5663 57.3551 37.1678 55.6736C39.7693 53.9921 41.8299 51.5952 43.1021 48.7708H49.4167C52.3175 48.7708 55.0995 47.6185 57.1506 45.5673C59.2018 43.5161 60.3542 40.7341 60.3542 37.8333C60.3542 34.9325 59.2018 32.1505 57.1506 30.0994C55.0995 28.0482 52.3175 26.8958 49.4167 26.8958H42.7696C42.2082 26.584 41.5992 26.3672 40.9671 26.2542C40.4596 26.1667 39.8296 26.1667 38.5754 26.1667H7.75791C6.50374 26.1667 5.87666 26.1667 5.36916 26.2542C4.07923 26.4838 2.90415 27.1409 2.03324 28.1198C1.16234 29.0986 0.646317 30.3421 0.568324 31.65M45.7387 31.2708C45.7533 31.3963 45.7679 31.5246 45.7737 31.65C45.8029 32.1663 45.7329 32.7875 45.5871 34.0358L44.4175 44.0342L44.3708 44.3958H49.4167C51.1571 44.3958 52.8263 43.7044 54.057 42.4737C55.2878 41.243 55.9792 39.5738 55.9792 37.8333C55.9792 36.0929 55.2878 34.4237 54.057 33.193C52.8263 31.9622 51.1571 31.2708 49.4167 31.2708H45.7387ZM24.7125 1.28751C25.1221 1.69767 25.3522 2.25365 25.3522 2.83334C25.3522 3.41303 25.1221 3.96902 24.7125 4.37917C24.3499 4.74324 24.1463 5.23616 24.1463 5.75001C24.1463 6.26386 24.3499 6.75678 24.7125 7.12084C25.8958 8.30447 26.5606 9.90964 26.5606 11.5833C26.5606 13.257 25.8958 14.8622 24.7125 16.0458C24.2978 16.4322 23.7493 16.6426 23.1826 16.6326C22.6159 16.6226 22.0752 16.393 21.6744 15.9922C21.2736 15.5915 21.0441 15.0507 21.0341 14.484C21.0241 13.9173 21.2344 13.3689 21.6208 12.9542C22.3792 12.1958 22.3792 10.9708 21.6208 10.2125C20.4375 9.02888 19.7727 7.42371 19.7727 5.75001C19.7727 4.07631 20.4375 2.47113 21.6208 1.28751C22.031 0.877861 22.587 0.647766 23.1667 0.647766C23.7463 0.647766 24.3023 0.877861 24.7125 1.28751ZM11.5875 5.66251C11.9971 6.07267 12.2272 6.62865 12.2272 7.20834C12.2272 7.78803 11.9971 8.34402 11.5875 8.75418L11.2492 9.09251C10.9056 9.43576 10.6975 9.89152 10.6632 10.376C10.6289 10.8604 10.7707 11.3409 11.0625 11.7292C11.9854 12.96 12.4333 14.4824 12.324 16.0169C12.2147 17.5514 11.5555 18.9949 10.4675 20.0825L10.1292 20.4208C9.71448 20.8072 9.16601 21.0176 8.5993 21.0076C8.03259 20.9976 7.49188 20.768 7.09109 20.3672C6.6903 19.9664 6.46073 19.4257 6.45073 18.859C6.44073 18.2923 6.65109 17.7439 7.03749 17.3292L7.37582 16.9908C7.7194 16.6476 7.92747 16.1918 7.96177 15.7074C7.99606 15.2229 7.85428 14.7424 7.56249 14.3542C6.6396 13.1234 6.19168 11.601 6.30098 10.0665C6.41028 8.53197 7.06947 7.08841 8.15749 6.00084L8.49582 5.66251C8.90598 5.25286 9.46197 5.02277 10.0417 5.02277C10.6213 5.02277 11.1773 5.25286 11.5875 5.66251ZM39.2958 5.66251C39.7055 6.07267 39.9356 6.62865 39.9356 7.20834C39.9356 7.78803 39.7055 8.34402 39.2958 8.75418L38.9575 9.09251C38.6139 9.43576 38.4058 9.89152 38.3715 10.376C38.3372 10.8604 38.479 11.3409 38.7708 11.7292C39.6937 12.96 40.1416 14.4824 40.0323 16.0169C39.923 17.5514 39.2638 18.9949 38.1758 20.0825L37.8375 20.4208C37.6372 20.6358 37.3957 20.8081 37.1274 20.9277C36.8591 21.0473 36.5694 21.1116 36.2757 21.1167C35.982 21.1219 35.6902 21.0679 35.4178 20.9579C35.1454 20.8478 34.898 20.6841 34.6903 20.4764C34.4826 20.2686 34.3188 20.0212 34.2088 19.7488C34.0988 19.4765 34.0447 19.1847 34.0499 18.891C34.0551 18.5973 34.1194 18.3076 34.239 18.0393C34.3585 17.7709 34.5309 17.5294 34.7458 17.3292L35.0842 16.9908C35.4277 16.6476 35.6358 16.1918 35.6701 15.7074C35.7044 15.2229 35.5626 14.7424 35.2708 14.3542C34.3479 13.1234 33.9 11.601 34.0093 10.0665C34.1186 8.53197 34.7778 7.08841 35.8658 6.00084L36.2042 5.66251C36.6143 5.25286 37.1703 5.02277 37.75 5.02277C38.3297 5.02277 38.8857 5.25286 39.2958 5.66251Z" fill="#BA845C"/>
</svg>
