<svg width="60" height="70" viewBox="0 0 60 70" fill="none" xmlns="http://www.w3.org/2000/svg">
<path d="M11.448 0L6.9695 8.29586L10.0833 10.025L43.297 12.6478L48.8134 8.1793L42.6243 9.20899L45.3729 2.23425L11.448 0ZM48.7942 2.64224L52.9844 7.94616L51.0815 27.9378L51.6197 51.2712L60 59.6836L57.6743 49.7363L58.7314 27.8018L53.8685 6.48904L48.7942 2.64224ZM48.5636 11.7929L41.9131 17.5049L10.6984 14.6489L4.2978 23.2362L1.72219 47.4438L35.0128 52.9031L1.39928 50.494L0 63.647L37.5308 68.8343L39.2222 26.7721L48.5636 11.7929ZM49.736 15.4455L42.5859 27.9378L41.3942 64.055L48.2945 52.2814L48.3521 27.9378L49.736 15.4455ZM50.428 54.5157L41.3942 70L59.2312 64.055L50.428 54.5157Z" fill="#BA845C"/>
</svg>
