<svg width="70" height="70" viewBox="0 0 70 70" fill="none" xmlns="http://www.w3.org/2000/svg">
<path fill-rule="evenodd" clip-rule="evenodd" d="M6.56249 34.65C6.53332 35.1663 6.60624 35.7875 6.75207 37.0358L7.92166 47.0342C8.37984 50.9495 10.2598 54.5603 13.2047 57.1809C16.1495 59.8016 19.9542 61.2496 23.8962 61.25H34.4371C37.5347 61.2498 40.5663 60.3551 43.1678 58.6736C45.7693 56.9921 47.8299 54.5952 49.1021 51.7708H55.4167C58.3175 51.7708 61.0995 50.6185 63.1506 48.5673C65.2018 46.5161 66.3542 43.7341 66.3542 40.8333C66.3542 37.9325 65.2018 35.1505 63.1506 33.0994C61.0995 31.0482 58.3175 29.8958 55.4167 29.8958H48.7696C48.2082 29.584 47.5992 29.3672 46.9671 29.2542C46.4596 29.1667 45.8296 29.1667 44.5754 29.1667H13.7579C12.5037 29.1667 11.8767 29.1667 11.3692 29.2542C10.0792 29.4838 8.90415 30.1409 8.03324 31.1198C7.16234 32.0986 6.64632 33.3421 6.56832 34.65M51.7387 34.2708C51.7533 34.3963 51.7679 34.5246 51.7737 34.65C51.8029 35.1663 51.7329 35.7875 51.5871 37.0358L50.4175 47.0342L50.3708 47.3958H55.4167C57.1571 47.3958 58.8263 46.7044 60.057 45.4737C61.2878 44.243 61.9792 42.5738 61.9792 40.8333C61.9792 39.0929 61.2878 37.4237 60.057 36.193C58.8263 34.9622 57.1571 34.2708 55.4167 34.2708H51.7387ZM30.7125 4.28751C31.1221 4.69767 31.3522 5.25365 31.3522 5.83334C31.3522 6.41303 31.1221 6.96902 30.7125 7.37917C30.3499 7.74324 30.1463 8.23616 30.1463 8.75001C30.1463 9.26386 30.3499 9.75678 30.7125 10.1208C31.8958 11.3045 32.5606 12.9096 32.5606 14.5833C32.5606 16.257 31.8958 17.8622 30.7125 19.0458C30.2978 19.4322 29.7493 19.6426 29.1826 19.6326C28.6159 19.6226 28.0752 19.393 27.6744 18.9922C27.2736 18.5915 27.0441 18.0507 27.0341 17.484C27.0241 16.9173 27.2344 16.3689 27.6208 15.9542C28.3792 15.1958 28.3792 13.9708 27.6208 13.2125C26.4375 12.0289 25.7727 10.4237 25.7727 8.75001C25.7727 7.07631 26.4375 5.47113 27.6208 4.28751C28.031 3.87786 28.587 3.64777 29.1667 3.64777C29.7463 3.64777 30.3023 3.87786 30.7125 4.28751ZM17.5875 8.66251C17.9971 9.07267 18.2272 9.62865 18.2272 10.2083C18.2272 10.788 17.9971 11.344 17.5875 11.7542L17.2492 12.0925C16.9056 12.4358 16.6975 12.8915 16.6632 13.376C16.6289 13.8604 16.7707 14.3409 17.0625 14.7292C17.9854 15.96 18.4333 17.4824 18.324 19.0169C18.2147 20.5514 17.5555 21.9949 16.4675 23.0825L16.1292 23.4208C15.7145 23.8072 15.166 24.0176 14.5993 24.0076C14.0326 23.9976 13.4919 23.768 13.0911 23.3672C12.6903 22.9664 12.4607 22.4257 12.4507 21.859C12.4407 21.2923 12.6511 20.7439 13.0375 20.3292L13.3758 19.9908C13.7194 19.6476 13.9275 19.1918 13.9618 18.7074C13.9961 18.2229 13.8543 17.7424 13.5625 17.3542C12.6396 16.1234 12.1917 14.601 12.301 13.0665C12.4103 11.532 13.0695 10.0884 14.1575 9.00084L14.4958 8.66251C14.906 8.25286 15.462 8.02277 16.0417 8.02277C16.6213 8.02277 17.1773 8.25286 17.5875 8.66251ZM45.2958 8.66251C45.7055 9.07267 45.9356 9.62865 45.9356 10.2083C45.9356 10.788 45.7055 11.344 45.2958 11.7542L44.9575 12.0925C44.6139 12.4358 44.4058 12.8915 44.3715 13.376C44.3372 13.8604 44.479 14.3409 44.7708 14.7292C45.6937 15.96 46.1416 17.4824 46.0323 19.0169C45.923 20.5514 45.2638 21.9949 44.1758 23.0825L43.8375 23.4208C43.6372 23.6358 43.3957 23.8081 43.1274 23.9277C42.8591 24.0473 42.5694 24.1116 42.2757 24.1167C41.982 24.1219 41.6902 24.0679 41.4178 23.9579C41.1454 23.8478 40.898 23.6841 40.6903 23.4764C40.4826 23.2686 40.3188 23.0212 40.2088 22.7488C40.0988 22.4765 40.0447 22.1847 40.0499 21.891C40.0551 21.5973 40.1194 21.3076 40.239 21.0393C40.3585 20.7709 40.5309 20.5294 40.7458 20.3292L41.0842 19.9908C41.4277 19.6476 41.6358 19.1918 41.6701 18.7074C41.7044 18.2229 41.5626 17.7424 41.2708 17.3542C40.3479 16.1234 39.9 14.601 40.0093 13.0665C40.1186 11.532 40.7778 10.0884 41.8658 9.00084L42.2042 8.66251C42.6143 8.25286 43.1703 8.02277 43.75 8.02277C44.3297 8.02277 44.8857 8.25286 45.2958 8.66251Z" fill="#BA845C"/>
</svg>
