<svg width="70" height="70" viewBox="0 0 70 70" fill="none" xmlns="http://www.w3.org/2000/svg">
<path d="M27.7598 3.64327C26.5439 3.65175 25.3437 3.82456 24.1787 4.17278C23.0229 4.51868 21.9581 5.02003 20.9918 5.6585C22.0475 8.3412 24.7427 11.7466 27.8646 14.6536C31.1243 17.6891 34.8619 20.268 37.2757 21.4311L37.304 21.4447L37.3317 21.4588C39.5498 22.5984 41.1202 24.3918 42.0266 26.3703C42.6104 27.6442 42.9504 28.9786 43.1487 30.3351C44.926 28.9488 46.7996 27.8387 48.7044 27.033C48.5595 24.5297 48.0088 21.9047 47.0058 19.2762C44.9022 13.7637 41.2281 9.32585 37.067 6.61936C34.0763 4.67413 30.867 3.62167 27.7598 3.64327ZM17.3134 9.42716C16.6143 10.5119 16.0411 11.7213 15.6055 13.0348C14.1508 17.4199 14.2688 22.9206 16.3725 28.4334C17.6456 31.7697 19.4947 34.7115 21.6785 37.115C23.8299 37.7587 25.9578 38.7532 27.9566 40.1026C29.501 41.1454 30.8772 42.3389 32.0698 43.6371C32.4591 43.7317 32.8484 43.8123 33.2374 43.8758C33.9784 41.9428 34.9402 40.0198 36.1255 38.1541C36.8425 37.0243 37.6283 35.9395 38.4784 34.9061C38.4882 34.1962 38.4825 33.5084 38.4487 32.8517C38.3571 31.0758 38.0727 29.5568 37.5518 28.4201C37.0312 27.2834 36.3528 26.4894 35.0827 25.837L35.1388 25.8646C32.0109 24.3573 28.105 21.6028 24.5102 18.2555C21.6528 15.595 19.0021 12.6149 17.3134 9.42716ZM55.5607 27.9833C53.714 27.9983 51.7605 28.4272 49.7841 29.2477C45.5677 30.998 41.334 34.5455 38.2026 39.4738C36.6007 41.9952 35.4495 44.624 34.7338 47.2016C37.5434 51.9154 38.2334 57.33 36.2094 61.8773C36.5366 62.3446 36.9018 62.7842 37.3012 63.1915C40.2604 60.6384 43.6707 58.5235 46.0944 56.3518C47.4192 55.165 48.4223 53.9899 48.9797 52.8709C49.5371 51.7516 49.729 50.7248 49.4391 49.3267L49.4222 49.2454L49.411 49.1634C48.31 41.1935 50.2415 36.5098 53.0564 33.6444C55.3199 31.3407 57.5731 30.1273 59.1274 28.5254C58.0044 28.1522 56.807 27.9731 55.5607 27.9833ZM63.3189 31.2581C61.0453 34.0841 58.2422 35.3894 56.5674 37.0941C54.6429 39.053 53.3144 41.411 54.2821 48.456C54.748 50.8513 54.3386 53.1517 53.3855 55.0652C52.4152 57.0131 50.9642 58.597 49.379 60.0175C46.9709 62.1752 44.1932 64.0228 41.8695 65.8253C44.5048 66.5098 47.5051 66.1786 50.5601 64.9102C54.7765 63.1602 59.0104 59.6124 62.1415 54.6841C65.2731 49.7556 66.6861 44.4155 66.4793 39.8551C66.3213 36.3674 65.2441 33.3791 63.3191 31.2583L63.3189 31.2581ZM54.2821 48.456C54.2739 48.4129 54.2673 48.3701 54.2583 48.3271L54.2868 48.4902C54.2855 48.4787 54.284 48.4673 54.2822 48.456H54.2821ZM15.9704 38.691C13.4571 38.6683 11.0895 39.2194 9.09684 40.3052C9.11051 40.3056 9.1224 40.3066 9.13607 40.307C10.316 40.3487 11.7972 40.2095 13.5026 40.4424C15.2079 40.6753 17.2056 41.4497 18.719 43.1621C20.2324 44.8744 21.2701 47.3019 21.993 50.7883L22.0101 50.8695L22.0213 50.9518C22.3566 53.3843 23.9061 54.7915 26.5923 56.1091C28.8843 57.2333 31.8269 58.0361 34.62 58.8534C35.871 53.248 32.9029 46.4112 26.5796 42.1423C23.1701 39.8405 19.4328 38.7223 15.9706 38.691H15.9704ZM4.88549 44.3576C1.43061 50.3089 4.20135 59.0418 11.7359 64.1287C19.1495 69.134 28.1129 68.5415 32.4269 63.3494C29.9064 62.6311 27.049 61.8155 24.4248 60.5284C21.041 58.8686 17.8158 56.0796 17.165 51.748C16.5453 48.7812 15.7172 47.198 15.0308 46.4215C14.3418 45.6412 13.8045 45.4515 12.8365 45.3195C11.8685 45.1872 10.5383 45.2816 8.96285 45.2261C7.73512 45.1829 6.29465 45.0067 4.88549 44.3577V44.3576ZM17.1652 51.7479C17.1682 51.7616 17.1712 51.7741 17.174 51.788L17.1457 51.6244C17.1515 51.666 17.159 51.7065 17.1653 51.748L17.1652 51.7479Z" fill="#BA845C"/>
</svg>
