<svg width="70" height="70" viewBox="0 0 70 70" fill="none" xmlns="http://www.w3.org/2000/svg">
<path d="M36.2333 63.3111V69.3896C36.2333 69.798 35.9556 69.9785 35.4384 69.9785L34.5565 70C34.012 70 33.7616 69.8152 33.7398 69.4111V63.1951C33.7369 63.1691 33.7266 63.144 33.7096 63.1217C33.6927 63.0993 33.6695 63.0803 33.6418 63.0661C33.6001 63.0272 33.5422 63.0013 33.4785 62.993C30.9361 62.8082 28.9054 62.3138 26.0852 61.6131C11.854 58.0924 2.09795 49.2499 0.230583 38.0861C-1.75112 26.3547 9.40956 17.5423 19.5522 10.0883C20.5321 9.34888 21.2562 8.50202 22.0728 7.68956C22.0728 7.65517 22.0946 7.65517 22.1436 7.63797H22.209C22.2525 7.63224 22.2852 7.6437 22.3069 7.67236L22.3287 7.72825C23.1236 10.4365 23.1889 12.3881 26.3847 14.5246C28.9979 16.257 35.9774 20.6976 31.7745 23.5176C31.4482 23.744 31.058 23.9054 30.6365 23.9884C30.215 24.0714 29.7745 24.0736 29.3518 23.9947C26.4551 23.4799 23.8668 22.2015 22.0133 20.3699C20.1597 18.5383 19.1516 16.2629 19.1547 13.9185C19.1186 13.8828 19.069 13.8572 19.0132 13.8454C18.9666 13.8344 18.9175 13.8318 18.8694 13.8378C18.8214 13.8437 18.7757 13.8581 18.7355 13.8798C10.5692 19.6659 3.58968 26.0409 2.96359 34.8835C2.16873 46.1591 13.7867 55.9775 27.2993 59.9409C29.1177 60.4912 31.2192 60.7319 33.2009 61.1188C33.3375 61.141 33.4798 61.121 33.5983 61.0629C33.6475 61.0318 33.6876 60.9926 33.7158 60.9481C33.744 60.9036 33.7597 60.8547 33.7616 60.805V16.4805C33.7624 16.4387 33.7522 16.3973 33.7315 16.3588C33.7109 16.3203 33.6804 16.2856 33.6418 16.257C32.4296 15.3743 31.2627 14.4529 30.1412 13.4929C25.7096 9.42196 30.3317 3.47248 34.1808 0.26561C34.293 0.176097 34.4286 0.107125 34.5782 0.0635688C34.792 -0.00336641 35.0264 -0.0178399 35.2508 0.0220387C35.4751 0.0619174 35.679 0.154295 35.8359 0.287104C39.4073 3.48968 42.4397 7.17371 41.1331 11.524C40.6649 13.0888 38.5689 14.675 36.9356 15.7239C36.7199 15.87 36.5459 16.0505 36.4248 16.2535C36.3038 16.4565 36.2385 16.6775 36.2333 16.9018V60.7319C36.2333 60.7878 36.2333 60.8437 36.2823 60.8995L36.4456 61.0285C36.5065 61.0678 36.5775 61.0962 36.6536 61.1118C36.7297 61.1274 36.8092 61.1298 36.8866 61.1188C38.754 60.805 40.6921 60.5298 42.4887 60.014C56.0666 56.0505 67.8479 46.1763 67.0585 34.8104C66.4488 26.2086 59.3114 19.3177 50.9981 13.8067C50.9732 13.7954 50.9451 13.7894 50.9164 13.7894C50.8877 13.7894 50.8596 13.7954 50.8347 13.8067L50.7694 13.8454L50.7258 13.9185C50.7397 15.9097 50.0355 17.863 48.6954 19.5499C47.3554 21.2368 45.4348 22.5876 43.1584 23.4445C38.8683 25.25 35.3459 22.8341 37.6052 19.5541C39.4291 16.8846 42.9297 15.3198 44.8461 13.5874C46.8985 11.7261 47.0346 9.92061 47.5246 7.78413C47.5537 7.65517 47.6244 7.63654 47.737 7.72825C49.7005 9.45635 52.5152 11.6917 56.181 14.4343C64.6086 20.6976 71.795 29.8539 69.601 39.0662C66.4488 52.2934 53.9652 60.7147 36.5109 63.0704C36.3476 63.0991 36.2514 63.1793 36.2333 63.3111Z" fill="#BA845C"/>
<path d="M52.6256 18.9502C53.393 26.0091 50.1721 33.492 40.9307 34.3695C39.7742 34.4718 38.8447 34.3256 38.1961 33.9063C35.5318 32.2781 38.0556 28.8316 40.1903 27.6178C44.6381 25.0292 49.2912 22.7721 52.4202 18.9064C52.5355 18.7634 52.604 18.778 52.6256 18.9502ZM30.16 34.3695C20.4322 33.7406 17.3518 26.1163 17.7895 18.9064C17.7895 18.6967 17.8868 18.6967 18.0219 18.8674C21.1726 22.7916 26.5499 25.3412 31.1543 28.2271C33.008 29.3971 33.7052 30.879 33.2404 32.7169C32.8945 34.0136 31.6678 34.4523 30.16 34.3695ZM30.1167 47.4439C19.9674 46.1082 17.5139 39.5709 17.7949 31.8199C17.7913 31.4689 17.9066 31.4413 18.1408 31.737C21.0105 35.788 25.4582 37.5869 30.0465 40.5118C31.4588 41.3925 32.3613 42.1156 32.754 42.6811C34.0024 44.4361 33.5701 47.907 30.1167 47.4439ZM52.6472 32.0051C53.4038 39.4442 50.0261 46.7175 40.2282 47.4049C37.5206 47.6145 36.4073 45.1478 37.499 43.4123C38.3632 42.0141 39.6145 40.8417 41.1307 40.0097C44.8164 37.9817 50.3072 35.3054 52.2095 31.9418C52.4401 31.503 52.5932 31.5242 52.6688 32.0051H52.6472ZM31.5489 59.7383C21.0321 59.982 17.168 52.2164 17.8868 44.4799C17.9084 44.2135 18.0003 44.1875 18.1624 44.4019C21.2645 48.1605 25.3447 50.1251 29.5601 52.6112C31.2732 53.6545 33.3323 55.0974 33.4728 56.9352C33.543 57.959 33.0783 58.8169 32.1055 59.5482C31.9571 59.662 31.7705 59.7272 31.5759 59.7334L31.5489 59.7383ZM49.0588 56.2284C47.8052 57.4891 46.233 58.4584 44.4755 59.0541C42.7181 59.6499 40.8273 59.8545 38.9636 59.6506C38.5628 59.5979 38.1984 59.4118 37.9421 59.1289C35.6021 56.3308 38.569 54.1176 41.255 52.4845C45.0758 50.1884 49.8694 47.8875 52.3716 44.4214L52.4419 44.3581C52.4675 44.3547 52.4936 44.357 52.518 44.3646C52.5425 44.3723 52.5645 44.3851 52.5824 44.4019L52.6256 44.4653C53.0904 48.414 52.1176 53.245 49.0588 56.2284Z" fill="#BA845C"/>
</svg>
